<svg xmlns="http://www.w3.org/2000/svg" version="1.1" xmlns:xlink="http://www.w3.org/1999/xlink" xmlns:svgjs="http://svgjs.dev/svgjs" width="1440" height="560" preserveAspectRatio="none" viewBox="0 0 1440 560"><g mask="url(&quot;#SvgjsMask1008&quot;)" fill="none"><rect width="1440" height="560" x="0" y="0" fill="rgba(15, 37, 51, 1)"></rect><path d="M0,600.492C120.262,600.736,246.021,605.196,348.705,542.595C452.41,479.371,512.929,367.771,563.136,257.176C613.253,146.78,673.747,23.875,636.578,-91.526C600.02,-205.03,468.994,-251.352,375.506,-325.377C300.302,-384.925,227.072,-439.122,141.888,-483.227C37.034,-537.516,-63.745,-633.696,-179.99,-612.99C-296.559,-592.226,-364.351,-472.267,-438.388,-379.865C-509.824,-290.71,-603.396,-200.761,-601.817,-86.528C-600.261,26.054,-472.656,92.195,-430.42,196.566C-385.191,308.331,-435.717,458.678,-347.798,541.185C-260.268,623.327,-120.037,600.249,0,600.492" fill="#0c1e29"></path><path d="M1440 1110.683C1542.295 1105.76 1632.704 1048.751 1714.475 987.091 1791.623 928.9169999999999 1849.128 852.845 1894.834 767.716 1943.173 677.684 2010.496 580.698 1985.926 481.508 1961.451 382.701 1844.884 343.398 1772.101 272.233 1706.6689999999999 208.255 1664.033 119.77499999999998 1579.681 84.291 1490.886 46.93799999999999 1391.203 53.132000000000005 1296.794 72.28500000000003 1195.999 92.73399999999998 1093.399 123.81 1021.653 197.5 948.0029999999999 273.147 899.514 376.485 897.844 482.05 896.25 582.831 969.961 663.859 1012.832 755.081 1055.144 845.113 1071.55 950.707 1148.005 1014.3530000000001 1228.403 1081.281 1335.511 1115.712 1440 1110.683" fill="#122c3d"></path></g><defs><mask id="SvgjsMask1008"><rect width="1440" height="560" fill="#ffffff"></rect></mask></defs></svg>